<?xml version="1.0" encoding="UTF-8"?><svg id="Calque_1" xmlns="http://www.w3.org/2000/svg" viewBox="0 0 1804.74 1804.75"><g id="Groupe_41"><g id="Groupe_32"><g id="Groupe_31"><path id="Tracé_303" d="M506.99,1713.01c447.7,218.36,987.65,32.44,1206.02-415.27,218.36-447.7,32.44-987.65-415.26-1206.01S310.09,59.29,91.73,506.99c-218.36,447.7-32.44,987.67,415.26,1206.03Z" fill="none" stroke="#fff" stroke-miterlimit="4" stroke-width=".5"/></g></g><line id="Ligne_20" x1="1284.15" y1="381.48" x2="1153.51" y2="559.63" fill="none" stroke="#fff" stroke-miterlimit="10" stroke-width=".5"/><line id="Ligne_21" x1="1454.34" y1="567.44" x2="1264.85" y2="682.42" fill="none" stroke="#fff" stroke-miterlimit="10" stroke-width=".5"/><line id="Ligne_22" x1="1540.91" y1="804.09" x2="1323.25" y2="837.59" fill="none" stroke="#fff" stroke-miterlimit="10" stroke-width=".5"/><line id="Ligne_23" x1="1529.37" y1="1055.85" x2="1315.25" y2="1003.45" fill="none" stroke="#fff" stroke-miterlimit="10" stroke-width=".5"/><line id="Ligne_24" x1="1422.37" y1="1283.74" x2="1245.8" y2="1154.27" fill="none" stroke="#fff" stroke-miterlimit="10" stroke-width=".5"/><line id="Ligne_25" x1="1236.99" y1="1454.19" x2="1122.64" y2="1265.75" fill="none" stroke="#fff" stroke-miterlimit="10" stroke-width=".5"/><line id="Ligne_26" x1="1001.01" y1="1543.98" x2="966.82" y2="1321.74" fill="none" stroke="#fff" stroke-miterlimit="10" stroke-width=".5"/><line id="Ligne_27" x1="748" y1="1532.99" x2="801.16" y2="1315.77" fill="none" stroke="#fff" stroke-miterlimit="10" stroke-width=".5"/><line id="Ligne_28" x1="520.72" y1="1422.14" x2="648.79" y2="1247.49" fill="none" stroke="#fff" stroke-miterlimit="10" stroke-width=".5"/><g id="Groupe_36"><g id="Groupe_35"><path id="Tracé_319" d="M350.74,1236.74s189.53-119.64,186.94-113.43" fill="none" stroke="#fff" stroke-miterlimit="10" stroke-width=".5"/></g></g><line id="Ligne_29" x1="263.97" y1="1000.39" x2="481.89" y2="966.86" fill="none" stroke="#fff" stroke-miterlimit="10" stroke-width=".5"/><line id="Ligne_30" x1="275.14" y1="748.77" x2="490" y2="801.36" fill="none" stroke="#fff" stroke-miterlimit="10" stroke-width=".5"/><line id="Ligne_31" x1="381.56" y1="520.52" x2="559.45" y2="650.96" fill="none" stroke="#fff" stroke-miterlimit="10" stroke-width=".5"/><line id="Ligne_32" x1="567.05" y1="349.54" x2="682.48" y2="539.78" fill="none" stroke="#fff" stroke-miterlimit="10" stroke-width=".5"/><line id="Ligne_34" x1="1055.63" y1="276.03" x2="1003.51" y2="489.03" fill="none" stroke="#fff" stroke-miterlimit="10" stroke-width=".5"/></g></svg>